<?xml version="1.0" encoding="UTF-8" standalone="no"?>
<!DOCTYPE svg PUBLIC "-//W3C//DTD SVG 1.1//EN" "http://www.w3.org/Graphics/SVG/1.1/DTD/svg11.dtd">
<svg xmlns="http://www.w3.org/2000/svg" version="1.1" viewBox="0.00 0.00 184.00 85.00">
<g stroke-width="2.00" fill="none" stroke-linecap="butt">
<path stroke="#a09f9f" stroke-opacity="0.996" vector-effect="non-scaling-stroke" d="
  M 78.45 39.81
  Q 76.05 29.51 74.58 26.72
  Q 67.46 13.23 54.15 8.41
  C 40.33 3.42 24.63 7.12 14.92 17.58
  Q 2.16 31.33 5.68 50.36
  Q 6.74 56.08 9.80 61.40
  Q 10.06 61.85 9.89 62.35
  L 3.62 81.15
  Q 3.47 81.61 3.93 81.44
  Q 13.00 78.04 22.12 75.40
  Q 23.91 74.89 25.32 75.60
  Q 39.78 82.90 54.97 76.66
  Q 59.37 74.85 60.73 74.05
  Q 68.67 69.40 74.94 58.81"
/>
<path stroke="#a09f9f" stroke-opacity="0.996" vector-effect="non-scaling-stroke" d="
  M 78.40 46.16
  Q 77.49 47.74 77.72 49.80"
/>
<path stroke="#afd096" vector-effect="non-scaling-stroke" d="
  M 23.52 17.86
  Q 14.50 24.30 11.65 34.74
  Q 9.44 42.88 11.84 50.96
  Q 12.82 54.24 14.92 58.61
  Q 15.45 59.73 16.22 60.22"
/>
<path stroke="#b9da9e" vector-effect="non-scaling-stroke" d="
  M 16.22 60.22
  Q 16.60 61.06 16.41 61.42
  Q 14.82 64.33 14.59 68.03"
/>
<path stroke="#c3e6a7" vector-effect="non-scaling-stroke" d="
  M 14.59 68.03
  Q 13.36 69.44 12.85 72.00
  Q 12.76 72.47 13.21 72.32
  L 23.79 68.75
  Q 24.26 68.59 24.69 68.83
  Q 44.59 80.17 62.22 65.81"
/>
<path stroke="#afd096" vector-effect="non-scaling-stroke" d="
  M 62.22 65.81
  Q 66.60 61.39 67.95 59.00
  Q 76.84 43.21 68.36 27.42"
/>
<path stroke="#b9da9e" vector-effect="non-scaling-stroke" d="
  M 68.36 27.42
  Q 66.17 23.28 62.28 19.80"
/>
<path stroke="#c3e6a7" vector-effect="non-scaling-stroke" d="
  M 62.28 19.80
  Q 50.87 9.44 34.98 12.40
  Q 28.55 13.60 23.52 17.86"
/>
<path stroke="#7dc146" vector-effect="non-scaling-stroke" d="
  M 62.28 19.80
  Q 61.70 21.24 63.91 23.62
  Q 64.43 24.17 63.72 24.47
  Q 63.36 24.62 63.06 24.90
  Q 62.57 25.35 61.92 25.19
  Q 57.16 23.98 53.57 24.17
  Q 45.48 24.60 38.14 24.19
  Q 35.72 24.05 33.00 24.38
  Q 32.53 24.43 32.10 24.22
  Q 30.81 23.57 29.25 23.86
  Q 23.90 24.85 18.15 24.00"
/>
<path stroke="#73b63e" vector-effect="non-scaling-stroke" d="
  M 18.15 24.00
  L 23.52 17.86"
/>
<path stroke="#b9da9e" vector-effect="non-scaling-stroke" d="
  M 32.80 26.63
  L 28.36 25.95"
/>
<path stroke="#68ab34" vector-effect="non-scaling-stroke" d="
  M 18.15 24.00
  Q 15.63 27.15 13.87 32.27
  A 1.20 1.20 0.0 0 0 15.00 33.86
  L 20.98 33.86
  Q 21.51 33.86 21.74 33.39
  Q 22.70 31.48 23.71 29.61
  Q 25.92 25.53 28.36 25.95"
/>
<path stroke="#afd096" vector-effect="non-scaling-stroke" d="
  M 28.36 25.95
  Q 20.96 31.23 24.97 39.71
  Q 26.94 43.86 29.60 47.22
  Q 37.15 56.74 48.20 59.50
  Q 55.06 61.21 58.85 56.68
  Q 60.51 54.70 60.30 51.86
  Q 60.26 51.26 59.73 51.00
  L 51.83 46.99
  A 1.11 1.11 0.0 0 0 50.45 47.31
  L 47.60 51.04
  A 1.86 1.86 0.0 0 1 45.38 51.60
  Q 37.00 47.84 32.94 40.36
  Q 32.65 39.82 33.08 39.38
  C 34.11 38.31 36.25 36.05 35.69 34.51
  Q 34.41 30.95 32.80 26.63"
/>
<path stroke="#68ab34" vector-effect="non-scaling-stroke" d="
  M 32.80 26.63
  Q 35.16 28.48 35.94 31.57
  C 36.24 32.76 36.76 33.57 37.21 34.59
  Q 37.65 35.57 38.72 35.61
  Q 41.98 35.76 45.21 35.68
  Q 52.40 35.51 59.03 35.85
  Q 60.26 35.91 61.51 35.78
  Q 62.67 35.67 63.92 35.76
  Q 66.41 35.94 69.10 35.44
  Q 69.62 35.34 69.63 34.81
  Q 69.71 32.13 68.28 29.95
  Q 66.63 27.43 68.36 27.42"
/>
<path stroke="#73b63e" vector-effect="non-scaling-stroke" d="
  M 62.22 65.81
  Q 62.69 63.32 65.87 60.03"
/>
<path stroke="#68ab34" vector-effect="non-scaling-stroke" d="
  M 65.87 60.03
  Q 68.76 56.72 69.35 51.50
  Q 69.42 50.95 68.86 50.99
  L 63.11 51.44
  Q 62.52 51.49 62.28 52.03
  C 61.48 53.89 60.87 56.10 59.52 57.57
  Q 57.30 59.96 53.88 60.89"
/>
<path stroke="#73b63e" vector-effect="non-scaling-stroke" d="
  M 53.88 60.89
  L 52.04 61.46
  A 1.11 1.07 43.0 0 1 51.41 61.47
  L 42.55 59.04"
/>
<path stroke="#68ab34" vector-effect="non-scaling-stroke" d="
  M 42.55 59.04
  Q 36.84 56.11 32.53 52.21
  Q 31.43 51.21 30.23 51.71
  Q 29.81 51.88 29.35 51.87
  L 15.09 51.61
  A 1.21 1.21 0.0 0 0 13.95 53.30
  Q 15.36 56.57 16.47 59.31
  Q 16.85 60.26 16.22 60.22"
/>
<path stroke="#7dc146" vector-effect="non-scaling-stroke" d="
  M 42.55 59.04
  Q 38.71 60.40 34.50 59.89
  Q 29.89 59.34 24.62 59.78
  Q 21.77 60.02 18.87 59.80
  Q 18.23 59.75 18.32 60.38
  Q 18.45 61.39 17.67 62.08
  A 1.90 1.86 -14.4 0 0 17.13 62.97
  Q 16.38 65.80 14.59 68.03"
/>
<path stroke="#7dc146" vector-effect="non-scaling-stroke" d="
  M 65.87 60.03
  Q 61.62 60.74 59.02 59.78
  Q 58.46 59.57 57.98 59.93
  Q 57.56 60.25 57.00 60.21
  Q 56.45 60.17 56.08 60.58
  Q 55.37 61.38 53.88 60.89"
/>
<path stroke="#3d5c35" vector-effect="non-scaling-stroke" d="
  M 83.97 53.23
  C 81.72 51.15 81.92 46.83 84.33 45.10
  Q 88.61 42.02 92.65 45.73
  A 0.41 0.41 0.0 0 0 93.33 45.52
  L 93.39 45.24
  A 0.88 0.87 -67.2 0 0 93.02 44.32
  Q 88.55 41.27 84.09 43.64
  C 80.46 45.56 79.88 50.74 82.65 53.76
  Q 86.79 58.26 92.62 54.52
  Q 93.19 54.15 93.29 53.47
  Q 93.45 52.40 92.51 52.95
  C 91.70 53.42 90.93 54.14 90.03 54.43
  Q 86.51 55.56 83.97 53.23"
/>
<path stroke="#3d5c35" vector-effect="non-scaling-stroke" d="
  M 99.98 42.54
  A 0.69 0.68 16.9 0 0 99.10 43.00
  Q 98.85 43.88 99.95 44.29
  A 0.83 0.82 -56.4 0 0 100.82 44.11
  Q 101.81 43.15 99.98 42.54"
/>
<path stroke="#3d5c35" vector-effect="non-scaling-stroke" d="
  M 179.9639 43.6869
  A 1.04 0.88 18.9 0 0 179.2650 42.5174
  A 1.04 0.88 18.9 0 0 177.9961 43.0131
  A 1.04 0.88 18.9 0 0 178.6950 44.1826
  A 1.04 0.88 18.9 0 0 179.9639 43.6869"
/>
<path stroke="#3d5c35" vector-effect="non-scaling-stroke" d="
  M 97.1187 43.2363
  A 0.58 0.58 0.0 0 0 96.5357 42.6593
  L 96.2357 42.6609
  A 0.58 0.58 0.0 0 0 95.6587 43.2439
  L 95.7213 55.2037
  A 0.58 0.58 0.0 0 0 96.3043 55.7807
  L 96.6043 55.7791
  A 0.58 0.58 0.0 0 0 97.1813 55.1961
  L 97.1187 43.2363"
/>
<path stroke="#3d5c35" vector-effect="non-scaling-stroke" d="
  M 110.64 47.08
  C 109.91 46.78 109.56 46.15 108.76 45.94
  C 104.75 44.90 100.88 50.01 103.30 53.55
  C 104.93 55.92 108.28 57.42 110.60 55.07
  Q 111.35 54.32 111.33 55.37
  L 111.28 59.02
  Q 111.28 59.51 111.77 59.50
  L 112.13 59.50
  A 0.66 0.66 0.0 0 0 112.79 58.85
  L 112.87 46.92
  A 0.67 0.66 74.1 0 0 111.85 46.35
  Q 111.60 46.51 111.45 46.79
  Q 111.17 47.30 110.64 47.08"
/>
<path stroke="#3d5c35" vector-effect="non-scaling-stroke" d="
  M 128.32 51.51
  L 135.34 51.41
  A 0.66 0.66 0.0 0 0 135.99 50.78
  Q 136.08 48.70 134.26 47.21
  Q 130.29 43.94 127.14 47.96
  Q 124.25 51.65 127.73 54.72
  Q 131.70 58.23 135.47 53.58
  Q 135.85 53.11 135.29 52.89
  L 134.91 52.74
  A 0.29 0.29 0.0 0 0 134.61 52.81
  Q 130.77 56.88 127.69 52.79
  Q 126.73 51.53 128.32 51.51"
/>
<path stroke="#3d5c35" vector-effect="non-scaling-stroke" d="
  M 151.38 55.26
  Q 151.66 55.63 152.11 55.63
  A 0.47 0.47 0.0 0 0 152.57 55.16
  L 152.54 46.80
  A 0.50 0.49 -16.8 0 0 151.77 46.39
  L 151.01 46.90
  A 0.65 0.65 0.0 0 1 150.26 46.89
  Q 147.09 44.58 144.27 47.29
  C 140.69 50.74 143.25 56.65 148.27 56.08
  C 149.17 55.98 149.70 55.46 150.45 55.06
  Q 151.00 54.76 151.38 55.26"
/>
<path stroke="#3d5c35" vector-effect="non-scaling-stroke" d="
  M 163.53 55.04
  L 163.47 59.07
  Q 163.46 59.43 163.82 59.45
  L 164.13 59.47
  A 0.61 0.61 0.0 0 0 164.78 58.86
  L 164.73 46.98
  Q 164.73 45.99 163.94 46.60
  Q 163.04 47.29 162.07 46.64
  C 160.10 45.32 157.86 45.73 156.32 47.43
  C 151.80 52.46 158.48 59.19 163.02 54.82
  Q 163.54 54.32 163.53 55.04"
/>
<path stroke="#3d5c35" vector-effect="non-scaling-stroke" d="
  M 116.48 52.09
  L 116.54 46.63
  Q 116.55 46.22 116.13 46.22
  L 115.78 46.23
  A 0.74 0.73 86.8 0 0 115.06 47.04
  C 115.38 50.09 114.33 56.04 119.29 56.17
  C 124.56 56.31 123.86 49.78 123.63 46.52
  A 0.51 0.51 0.0 0 0 123.14 46.04
  L 122.77 46.03
  A 0.28 0.28 0.0 0 0 122.49 46.29
  C 122.27 48.74 123.62 56.54 118.18 54.54
  A 2.58 2.57 -79.8 0 1 116.48 52.09"
/>
<path stroke="#3d5c35" vector-effect="non-scaling-stroke" d="
  M 174.51 52.41
  C 174.03 55.73 169.14 55.53 169.03 52.04
  Q 168.95 49.52 168.98 46.86
  A 0.75 0.75 0.0 0 0 168.27 46.10
  L 168.02 46.08
  A 0.40 0.39 2.9 0 0 167.60 46.45
  Q 167.47 48.73 167.50 51.46
  C 167.58 57.30 175.26 57.74 175.91 52.63
  Q 176.27 49.82 175.94 46.36
  Q 175.90 45.99 175.52 46.02
  L 175.23 46.04
  Q 174.64 46.09 174.67 46.69
  Q 174.88 49.84 174.51 52.41"
/>
<path stroke="#3d5c35" vector-effect="non-scaling-stroke" d="
  M 179.6664 46.7117
  A 0.66 0.66 0.0 0 0 179.0168 46.0414
  L 178.9168 46.0398
  A 0.66 0.66 0.0 0 0 178.2465 46.6894
  L 178.1136 55.1483
  A 0.66 0.66 0.0 0 0 178.7632 55.8186
  L 178.8632 55.8202
  A 0.66 0.66 0.0 0 0 179.5335 55.1706
  L 179.6664 46.7117"
/>
<path stroke="#3d5c35" vector-effect="non-scaling-stroke" d="
  M 100.9011 46.9142
  A 0.67 0.67 0.0 0 0 100.2264 46.2489
  L 99.8864 46.2513
  A 0.67 0.67 0.0 0 0 99.2211 46.9260
  L 99.2789 55.2058
  A 0.67 0.67 0.0 0 0 99.9536 55.8711
  L 100.2936 55.8687
  A 0.67 0.67 0.0 0 0 100.9589 55.1940
  L 100.9011 46.9142"
/>
<path stroke="#3d5c35" vector-effect="non-scaling-stroke" d="
  M 97.12 66.03
  Q 97.32 65.96 97.43 65.78
  Q 97.82 65.14 97.09 64.95
  Q 96.19 64.72 96.29 63.84
  Q 96.37 63.12 97.05 62.89
  Q 97.52 62.74 97.81 62.36
  A 0.47 0.46 27.3 0 0 97.57 61.63
  Q 96.72 61.37 96.06 62.00
  C 95.07 62.95 95.92 64.11 94.84 65.04
  Q 94.32 65.49 94.85 65.94
  L 95.10 66.15
  Q 95.33 66.35 95.33 66.65
  L 95.44 72.21
  Q 95.44 72.44 95.67 72.43
  L 96.01 72.42
  Q 96.48 72.42 96.48 71.95
  L 96.42 66.99
  Q 96.42 66.25 97.12 66.03"
/>
<path stroke="#3d5c35" vector-effect="non-scaling-stroke" d="
  M 109.71 62.52
  A 0.27 0.27 0.0 0 0 109.44 62.25
  L 108.90 62.25
  A 0.27 0.27 0.0 0 0 108.63 62.52
  L 108.63 71.96
  A 0.27 0.27 0.0 0 0 108.90 72.23
  L 109.44 72.23
  A 0.27 0.27 0.0 0 0 109.71 71.96
  L 109.71 62.52"
/>
<path stroke="#3d5c35" vector-effect="non-scaling-stroke" d="
  M 83.48 68.82
  L 87.47 68.89
  Q 90.44 68.94 88.74 66.50
  C 86.87 63.83 83.58 63.90 82.14 66.86
  C 80.00 71.24 85.15 75.09 88.45 71.40
  Q 90.04 69.63 87.80 70.41
  Q 87.39 70.55 87.14 70.90
  C 86.02 72.46 83.74 71.21 82.87 69.95
  Q 82.07 68.79 83.48 68.82"
/>
<path stroke="#3d5c35" vector-effect="non-scaling-stroke" d="
  M 106.05 72.06
  Q 106.12 72.09 106.17 72.14
  Q 106.79 72.70 106.79 71.86
  Q 106.77 69.01 106.87 66.00
  Q 106.89 65.34 106.23 65.42
  L 105.78 65.48
  Q 105.05 65.57 104.41 65.22
  Q 101.62 63.67 99.46 66.73
  C 97.63 69.34 100.07 72.67 102.85 72.78
  A 1.43 1.40 30.8 0 0 103.63 72.59
  Q 104.47 72.12 105.41 71.98
  Q 105.74 71.93 106.05 72.06"
/>
<path stroke="#3d5c35" vector-effect="non-scaling-stroke" d="
  M 113.50 68.86
  L 118.17 68.82
  A 0.93 0.93 0.0 0 0 118.98 67.43
  Q 116.65 63.29 113.37 65.19
  C 107.37 68.68 115.22 76.77 118.63 70.70
  A 0.43 0.43 0.0 0 0 118.30 70.06
  Q 117.89 70.03 117.60 70.32
  Q 115.02 72.90 112.89 70.09
  Q 111.96 68.87 113.50 68.86"
/>
<path stroke="#3d5c35" vector-effect="non-scaling-stroke" d="
  M 129.82 66.07
  L 130.93 66.89
  A 0.42 0.41 -44.2 0 0 131.42 66.89
  Q 131.63 66.74 131.65 66.52
  Q 131.67 66.19 131.45 65.98
  C 127.31 62.05 121.40 68.17 125.67 71.69
  Q 128.47 73.99 131.65 71.46
  A 0.48 0.48 0.0 0 0 131.72 70.78
  L 131.49 70.50
  A 0.35 0.34 -38.4 0 0 131.01 70.45
  C 126.76 73.75 123.03 68.22 127.47 65.89
  A 2.21 2.21 0.0 0 1 129.82 66.07"
/>
<path stroke="#3d5c35" vector-effect="non-scaling-stroke" d="
  M 141.36 68.74
  A 3.98 3.98 0.0 0 0 137.38 64.76
  A 3.98 3.98 0.0 0 0 133.40 68.74
  A 3.98 3.98 0.0 0 0 137.38 72.72
  A 3.98 3.98 0.0 0 0 141.36 68.74"
/>
<path stroke="#3d5c35" vector-effect="non-scaling-stroke" d="
  M 158.77 68.72
  A 3.98 3.98 0.0 0 0 154.79 64.74
  A 3.98 3.98 0.0 0 0 150.81 68.72
  A 3.98 3.98 0.0 0 0 154.79 72.70
  A 3.98 3.98 0.0 0 0 158.77 68.72"
/>
<path stroke="#3d5c35" vector-effect="non-scaling-stroke" d="
  M 167.97 71.03
  A 2.67 2.66 -59.9 0 1 167.03 67.48
  Q 168.05 65.61 170.38 65.69
  A 1.35 1.34 72.8 0 1 171.43 66.25
  Q 171.91 66.94 172.61 66.74
  Q 173.32 66.53 172.79 66.01
  C 170.02 63.31 166.86 64.95 165.46 67.93
  Q 165.19 68.50 165.37 69.10
  C 166.36 72.39 170.41 74.34 172.82 71.28
  Q 173.20 70.80 172.66 70.51
  C 172.25 70.29 170.20 72.39 167.97 71.03"
/>
<path stroke="#3d5c35" vector-effect="non-scaling-stroke" d="
  M 182.66 68.72
  A 3.98 3.98 0.0 0 0 178.68 64.74
  A 3.98 3.98 0.0 0 0 174.70 68.72
  A 3.98 3.98 0.0 0 0 178.68 72.70
  A 3.98 3.98 0.0 0 0 182.66 68.72"
/>
<path stroke="#3d5c35" vector-effect="non-scaling-stroke" d="
  M 143.10 65.94
  L 142.88 72.11
  Q 142.87 72.43 143.19 72.41
  L 143.69 72.40
  Q 144.06 72.38 144.02 72.01
  C 143.78 69.95 143.32 67.67 145.18 66.16
  C 146.58 65.03 148.26 66.14 148.39 67.76
  Q 148.51 69.42 148.21 71.83
  Q 148.13 72.49 148.79 72.46
  L 149.25 72.45
  Q 149.81 72.42 149.75 71.86
  C 149.52 69.61 150.39 64.60 146.51 64.65
  A 2.06 2.06 0.0 0 0 145.41 64.99
  Q 144.54 65.58 143.58 65.51
  Q 143.11 65.48 143.10 65.94"
/>
<path stroke="#3d5c35" vector-effect="non-scaling-stroke" d="
  M 161.60 66.33
  Q 162.17 65.49 163.10 66.08
  Q 163.63 66.42 163.95 65.88
  L 164.10 65.63
  Q 164.14 65.56 164.08 65.50
  Q 162.15 63.66 160.48 65.95
  Q 159.59 67.16 160.81 68.03
  L 163.12 69.68
  A 0.95 0.95 0.0 0 1 162.92 71.33
  Q 161.96 71.73 160.91 71.10
  A 0.40 0.40 0.0 0 0 160.31 71.39
  L 160.25 71.75
  Q 160.22 72.00 160.42 72.14
  C 163.92 74.61 166.52 69.41 161.93 67.46
  A 0.76 0.76 0.0 0 1 161.60 66.33"
/>
<path stroke="#3d5c35" vector-effect="non-scaling-stroke" d="
  M 111.49 51.00
  A 3.75 3.75 0.0 0 0 107.74 47.25
  A 3.75 3.75 0.0 0 0 103.99 51.00
  A 3.75 3.75 0.0 0 0 107.74 54.75
  A 3.75 3.75 0.0 0 0 111.49 51.00"
/>
<path stroke="#3d5c35" vector-effect="non-scaling-stroke" d="
  M 127.84 50.02
  L 134.12 49.94
  A 0.14 0.14 0.0 0 0 134.26 49.79
  L 134.26 49.73
  A 3.13 2.46 -0.8 0 0 131.09 47.32
  L 130.79 47.32
  A 3.13 2.46 -0.8 0 0 127.70 49.83
  L 127.70 49.89
  A 0.14 0.14 0.0 0 0 127.84 50.02"
/>
<path stroke="#3d5c35" vector-effect="non-scaling-stroke" d="
  M 151.35 50.99
  A 3.78 3.78 0.0 0 0 147.57 47.21
  A 3.78 3.78 0.0 0 0 143.79 50.99
  A 3.78 3.78 0.0 0 0 147.57 54.77
  A 3.78 3.78 0.0 0 0 151.35 50.99"
/>
<path stroke="#3d5c35" vector-effect="non-scaling-stroke" d="
  M 163.71 50.96
  A 3.77 3.77 0.0 0 0 159.94 47.19
  A 3.77 3.77 0.0 0 0 156.17 50.96
  A 3.77 3.77 0.0 0 0 159.94 54.73
  A 3.77 3.77 0.0 0 0 163.71 50.96"
/>
<path stroke="#3d5c35" vector-effect="non-scaling-stroke" d="
  M 83.20 67.54
  L 87.76 67.60
  A 0.04 0.04 0.0 0 0 87.80 67.56
  L 87.80 67.51
  A 2.20 1.73 0.7 0 0 85.62 65.75
  L 85.38 65.75
  A 2.20 1.73 0.7 0 0 83.16 67.45
  L 83.16 67.50
  A 0.04 0.04 0.0 0 0 83.20 67.54"
/>
<path stroke="#3d5c35" vector-effect="non-scaling-stroke" d="
  M 105.70 68.69
  A 2.84 2.84 0.0 0 0 102.86 65.85
  A 2.84 2.84 0.0 0 0 100.02 68.69
  A 2.84 2.84 0.0 0 0 102.86 71.53
  A 2.84 2.84 0.0 0 0 105.70 68.69"
/>
<path stroke="#3d5c35" vector-effect="non-scaling-stroke" d="
  M 113.10 67.57
  L 117.30 67.61
  A 0.04 0.04 0.0 0 0 117.34 67.57
  L 117.34 67.53
  A 2.00 1.72 0.5 0 0 115.36 65.79
  L 115.08 65.79
  A 2.00 1.72 0.5 0 0 113.06 67.49
  L 113.06 67.53
  A 0.04 0.04 0.0 0 0 113.10 67.57"
/>
<path stroke="#3d5c35" vector-effect="non-scaling-stroke" d="
  M 140.21 68.69
  A 2.83 2.83 0.0 0 0 137.38 65.86
  A 2.83 2.83 0.0 0 0 134.55 68.69
  A 2.83 2.83 0.0 0 0 137.38 71.52
  A 2.83 2.83 0.0 0 0 140.21 68.69"
/>
<path stroke="#3d5c35" vector-effect="non-scaling-stroke" d="
  M 157.59 68.70
  A 2.81 2.81 0.0 0 0 154.78 65.89
  A 2.81 2.81 0.0 0 0 151.97 68.70
  A 2.81 2.81 0.0 0 0 154.78 71.51
  A 2.81 2.81 0.0 0 0 157.59 68.70"
/>
<path stroke="#3d5c35" vector-effect="non-scaling-stroke" d="
  M 179.2478 71.5234
  A 2.90 2.76 77.7 0 0 181.3266 68.1020
  A 2.90 2.76 77.7 0 0 178.0122 65.8566
  A 2.90 2.76 77.7 0 0 175.9334 69.2780
  A 2.90 2.76 77.7 0 0 179.2478 71.5234"
/>
</g>
<path fill="#403d3d" fill-opacity="0.988" d="
  M 78.45 39.81
  Q 76.05 29.51 74.58 26.72
  Q 67.46 13.23 54.15 8.41
  C 40.33 3.42 24.63 7.12 14.92 17.58
  Q 2.16 31.33 5.68 50.36
  Q 6.74 56.08 9.80 61.40
  Q 10.06 61.85 9.89 62.35
  L 3.62 81.15
  Q 3.47 81.61 3.93 81.44
  Q 13.00 78.04 22.12 75.40
  Q 23.91 74.89 25.32 75.60
  Q 39.78 82.90 54.97 76.66
  Q 59.37 74.85 60.73 74.05
  Q 68.67 69.40 74.94 58.81
  Q 70.14 69.21 60.81 74.80
  Q 50.97 80.71 38.80 80.42
  C 34.27 80.31 29.51 79.09 25.47 77.06
  Q 24.54 76.60 23.56 76.30
  Q 22.58 76.01 21.61 76.34
  Q 12.58 79.41 3.66 82.29
  Q 2.27 82.74 2.52 81.30
  Q 2.65 80.55 2.92 79.83
  Q 5.47 73.06 7.76 65.95
  Q 8.31 64.27 8.64 62.59
  Q 8.74 62.07 8.49 61.59
  C 3.38 52.10 2.05 41.75 5.69 31.43
  Q 12.03 13.40 30.21 7.22
  C 52.66 -0.41 76.94 16.19 78.45 39.81
  Z"
/>
<path fill="#ffffff" d="
  M 78.45 39.81
  L 78.40 46.16
  Q 77.49 47.74 77.72 49.80
  L 74.94 58.81
  Q 68.67 69.40 60.73 74.05
  Q 59.37 74.85 54.97 76.66
  Q 39.78 82.90 25.32 75.60
  Q 23.91 74.89 22.12 75.40
  Q 13.00 78.04 3.93 81.44
  Q 3.47 81.61 3.62 81.15
  L 9.89 62.35
  Q 10.06 61.85 9.80 61.40
  Q 6.74 56.08 5.68 50.36
  Q 2.16 31.33 14.92 17.58
  C 24.63 7.12 40.33 3.42 54.15 8.41
  Q 67.46 13.23 74.58 26.72
  Q 76.05 29.51 78.45 39.81
  Z
  M 23.52 17.86
  Q 14.50 24.30 11.65 34.74
  Q 9.44 42.88 11.84 50.96
  Q 12.82 54.24 14.92 58.61
  Q 15.45 59.73 16.22 60.22
  Q 16.60 61.06 16.41 61.42
  Q 14.82 64.33 14.59 68.03
  Q 13.36 69.44 12.85 72.00
  Q 12.76 72.47 13.21 72.32
  L 23.79 68.75
  Q 24.26 68.59 24.69 68.83
  Q 44.59 80.17 62.22 65.81
  Q 66.60 61.39 67.95 59.00
  Q 76.84 43.21 68.36 27.42
  Q 66.17 23.28 62.28 19.80
  Q 50.87 9.44 34.98 12.40
  Q 28.55 13.60 23.52 17.86
  Z"
/>
<path fill="#87cc4f" d="
  M 62.28 19.80
  Q 61.70 21.24 63.91 23.62
  Q 64.43 24.17 63.72 24.47
  Q 63.36 24.62 63.06 24.90
  Q 62.57 25.35 61.92 25.19
  Q 57.16 23.98 53.57 24.17
  Q 45.48 24.60 38.14 24.19
  Q 35.72 24.05 33.00 24.38
  Q 32.53 24.43 32.10 24.22
  Q 30.81 23.57 29.25 23.86
  Q 23.90 24.85 18.15 24.00
  L 23.52 17.86
  Q 28.55 13.60 34.98 12.40
  Q 50.87 9.44 62.28 19.80
  Z"
/>
<path fill="#5ea02c" d="
  M 23.52 17.86
  L 18.15 24.00
  Q 15.63 27.15 13.87 32.27
  A 1.20 1.20 0.0 0 0 15.00 33.86
  L 20.98 33.86
  Q 21.51 33.86 21.74 33.39
  Q 22.70 31.48 23.71 29.61
  Q 25.92 25.53 28.36 25.95
  Q 20.96 31.23 24.97 39.71
  Q 26.94 43.86 29.60 47.22
  Q 37.15 56.74 48.20 59.50
  Q 55.06 61.21 58.85 56.68
  Q 60.51 54.70 60.30 51.86
  Q 60.26 51.26 59.73 51.00
  L 51.83 46.99
  A 1.11 1.11 0.0 0 0 50.45 47.31
  L 47.60 51.04
  A 1.86 1.86 0.0 0 1 45.38 51.60
  Q 37.00 47.84 32.94 40.36
  Q 32.65 39.82 33.08 39.38
  C 34.11 38.31 36.25 36.05 35.69 34.51
  Q 34.41 30.95 32.80 26.63
  Q 35.16 28.48 35.94 31.57
  C 36.24 32.76 36.76 33.57 37.21 34.59
  Q 37.65 35.57 38.72 35.61
  Q 41.98 35.76 45.21 35.68
  Q 52.40 35.51 59.03 35.85
  Q 60.26 35.91 61.51 35.78
  Q 62.67 35.67 63.92 35.76
  Q 66.41 35.94 69.10 35.44
  Q 69.62 35.34 69.63 34.81
  Q 69.71 32.13 68.28 29.95
  Q 66.63 27.43 68.36 27.42
  Q 76.84 43.21 67.95 59.00
  Q 66.60 61.39 62.22 65.81
  Q 62.69 63.32 65.87 60.03
  Q 68.76 56.72 69.35 51.50
  Q 69.42 50.95 68.86 50.99
  L 63.11 51.44
  Q 62.52 51.49 62.28 52.03
  C 61.48 53.89 60.87 56.10 59.52 57.57
  Q 57.30 59.96 53.88 60.89
  L 52.04 61.46
  A 1.11 1.07 43.0 0 1 51.41 61.47
  L 42.55 59.04
  Q 36.84 56.11 32.53 52.21
  Q 31.43 51.21 30.23 51.71
  Q 29.81 51.88 29.35 51.87
  L 15.09 51.61
  A 1.21 1.21 0.0 0 0 13.95 53.30
  Q 15.36 56.57 16.47 59.31
  Q 16.85 60.26 16.22 60.22
  Q 15.45 59.73 14.92 58.61
  Q 12.82 54.24 11.84 50.96
  Q 9.44 42.88 11.65 34.74
  Q 14.50 24.30 23.52 17.86
  Z"
/>
<path fill="#72b53c" d="
  M 62.28 19.80
  Q 66.17 23.28 68.36 27.42
  Q 66.63 27.43 68.28 29.95
  Q 69.71 32.13 69.63 34.81
  Q 69.62 35.34 69.10 35.44
  Q 66.41 35.94 63.92 35.76
  Q 62.67 35.67 61.51 35.78
  Q 60.26 35.91 59.03 35.85
  Q 52.40 35.51 45.21 35.68
  Q 41.98 35.76 38.72 35.61
  Q 37.65 35.57 37.21 34.59
  C 36.76 33.57 36.24 32.76 35.94 31.57
  Q 35.16 28.48 32.80 26.63
  L 28.36 25.95
  Q 25.92 25.53 23.71 29.61
  Q 22.70 31.48 21.74 33.39
  Q 21.51 33.86 20.98 33.86
  L 15.00 33.86
  A 1.20 1.20 0.0 0 1 13.87 32.27
  Q 15.63 27.15 18.15 24.00
  Q 23.90 24.85 29.25 23.86
  Q 30.81 23.57 32.10 24.22
  Q 32.53 24.43 33.00 24.38
  Q 35.72 24.05 38.14 24.19
  Q 45.48 24.60 53.57 24.17
  Q 57.16 23.98 61.92 25.19
  Q 62.57 25.35 63.06 24.90
  Q 63.36 24.62 63.72 24.47
  Q 64.43 24.17 63.91 23.62
  Q 61.70 21.24 62.28 19.80
  Z"
/>
<path fill="#ffffff" d="
  M 32.80 26.63
  Q 34.41 30.95 35.69 34.51
  C 36.25 36.05 34.11 38.31 33.08 39.38
  Q 32.65 39.82 32.94 40.36
  Q 37.00 47.84 45.38 51.60
  A 1.86 1.86 0.0 0 0 47.60 51.04
  L 50.45 47.31
  A 1.11 1.11 0.0 0 1 51.83 46.99
  L 59.73 51.00
  Q 60.26 51.26 60.30 51.86
  Q 60.51 54.70 58.85 56.68
  Q 55.06 61.21 48.20 59.50
  Q 37.15 56.74 29.60 47.22
  Q 26.94 43.86 24.97 39.71
  Q 20.96 31.23 28.36 25.95
  L 32.80 26.63
  Z"
/>
<path fill="#76b566" d="
  M 184.00 35.97
  L 184.00 82.27
  Q 119.54 82.26 55.08 82.27
  C 50.88 82.27 46.87 82.63 42.71 82.04
  Q 42.60 82.03 42.57 82.15
  Q 42.52 82.37 42.53 82.15
  Q 42.53 82.09 42.59 82.08
  Q 58.47 81.08 68.98 70.90
  C 78.00 62.16 81.69 49.13 79.96 36.59
  Q 79.87 35.97 80.49 35.97
  L 184.00 35.97
  Z
  M 83.97 53.23
  C 81.72 51.15 81.92 46.83 84.33 45.10
  Q 88.61 42.02 92.65 45.73
  A 0.41 0.41 0.0 0 0 93.33 45.52
  L 93.39 45.24
  A 0.88 0.87 -67.2 0 0 93.02 44.32
  Q 88.55 41.27 84.09 43.64
  C 80.46 45.56 79.88 50.74 82.65 53.76
  Q 86.79 58.26 92.62 54.52
  Q 93.19 54.15 93.29 53.47
  Q 93.45 52.40 92.51 52.95
  C 91.70 53.42 90.93 54.14 90.03 54.43
  Q 86.51 55.56 83.97 53.23
  Z
  M 99.98 42.54
  A 0.69 0.68 16.9 0 0 99.10 43.00
  Q 98.85 43.88 99.95 44.29
  A 0.83 0.82 -56.4 0 0 100.82 44.11
  Q 101.81 43.15 99.98 42.54
  Z
  M 179.9639 43.6869
  A 1.04 0.88 18.9 0 0 179.2650 42.5174
  A 1.04 0.88 18.9 0 0 177.9961 43.0131
  A 1.04 0.88 18.9 0 0 178.6950 44.1826
  A 1.04 0.88 18.9 0 0 179.9639 43.6869
  Z
  M 97.1187 43.2363
  A 0.58 0.58 0.0 0 0 96.5357 42.6593
  L 96.2357 42.6609
  A 0.58 0.58 0.0 0 0 95.6587 43.2439
  L 95.7213 55.2037
  A 0.58 0.58 0.0 0 0 96.3043 55.7807
  L 96.6043 55.7791
  A 0.58 0.58 0.0 0 0 97.1813 55.1961
  L 97.1187 43.2363
  Z
  M 110.64 47.08
  C 109.91 46.78 109.56 46.15 108.76 45.94
  C 104.75 44.90 100.88 50.01 103.30 53.55
  C 104.93 55.92 108.28 57.42 110.60 55.07
  Q 111.35 54.32 111.33 55.37
  L 111.28 59.02
  Q 111.28 59.51 111.77 59.50
  L 112.13 59.50
  A 0.66 0.66 0.0 0 0 112.79 58.85
  L 112.87 46.92
  A 0.67 0.66 74.1 0 0 111.85 46.35
  Q 111.60 46.51 111.45 46.79
  Q 111.17 47.30 110.64 47.08
  Z
  M 128.32 51.51
  L 135.34 51.41
  A 0.66 0.66 0.0 0 0 135.99 50.78
  Q 136.08 48.70 134.26 47.21
  Q 130.29 43.94 127.14 47.96
  Q 124.25 51.65 127.73 54.72
  Q 131.70 58.23 135.47 53.58
  Q 135.85 53.11 135.29 52.89
  L 134.91 52.74
  A 0.29 0.29 0.0 0 0 134.61 52.81
  Q 130.77 56.88 127.69 52.79
  Q 126.73 51.53 128.32 51.51
  Z
  M 151.38 55.26
  Q 151.66 55.63 152.11 55.63
  A 0.47 0.47 0.0 0 0 152.57 55.16
  L 152.54 46.80
  A 0.50 0.49 -16.8 0 0 151.77 46.39
  L 151.01 46.90
  A 0.65 0.65 0.0 0 1 150.26 46.89
  Q 147.09 44.58 144.27 47.29
  C 140.69 50.74 143.25 56.65 148.27 56.08
  C 149.17 55.98 149.70 55.46 150.45 55.06
  Q 151.00 54.76 151.38 55.26
  Z
  M 163.53 55.04
  L 163.47 59.07
  Q 163.46 59.43 163.82 59.45
  L 164.13 59.47
  A 0.61 0.61 0.0 0 0 164.78 58.86
  L 164.73 46.98
  Q 164.73 45.99 163.94 46.60
  Q 163.04 47.29 162.07 46.64
  C 160.10 45.32 157.86 45.73 156.32 47.43
  C 151.80 52.46 158.48 59.19 163.02 54.82
  Q 163.54 54.32 163.53 55.04
  Z
  M 116.48 52.09
  L 116.54 46.63
  Q 116.55 46.22 116.13 46.22
  L 115.78 46.23
  A 0.74 0.73 86.8 0 0 115.06 47.04
  C 115.38 50.09 114.33 56.04 119.29 56.17
  C 124.56 56.31 123.86 49.78 123.63 46.52
  A 0.51 0.51 0.0 0 0 123.14 46.04
  L 122.77 46.03
  A 0.28 0.28 0.0 0 0 122.49 46.29
  C 122.27 48.74 123.62 56.54 118.18 54.54
  A 2.58 2.57 -79.8 0 1 116.48 52.09
  Z
  M 174.51 52.41
  C 174.03 55.73 169.14 55.53 169.03 52.04
  Q 168.95 49.52 168.98 46.86
  A 0.75 0.75 0.0 0 0 168.27 46.10
  L 168.02 46.08
  A 0.40 0.39 2.9 0 0 167.60 46.45
  Q 167.47 48.73 167.50 51.46
  C 167.58 57.30 175.26 57.74 175.91 52.63
  Q 176.27 49.82 175.94 46.36
  Q 175.90 45.99 175.52 46.02
  L 175.23 46.04
  Q 174.64 46.09 174.67 46.69
  Q 174.88 49.84 174.51 52.41
  Z
  M 179.6664 46.7117
  A 0.66 0.66 0.0 0 0 179.0168 46.0414
  L 178.9168 46.0398
  A 0.66 0.66 0.0 0 0 178.2465 46.6894
  L 178.1136 55.1483
  A 0.66 0.66 0.0 0 0 178.7632 55.8186
  L 178.8632 55.8202
  A 0.66 0.66 0.0 0 0 179.5335 55.1706
  L 179.6664 46.7117
  Z
  M 100.9011 46.9142
  A 0.67 0.67 0.0 0 0 100.2264 46.2489
  L 99.8864 46.2513
  A 0.67 0.67 0.0 0 0 99.2211 46.9260
  L 99.2789 55.2058
  A 0.67 0.67 0.0 0 0 99.9536 55.8711
  L 100.2936 55.8687
  A 0.67 0.67 0.0 0 0 100.9589 55.1940
  L 100.9011 46.9142
  Z
  M 97.12 66.03
  Q 97.32 65.96 97.43 65.78
  Q 97.82 65.14 97.09 64.95
  Q 96.19 64.72 96.29 63.84
  Q 96.37 63.12 97.05 62.89
  Q 97.52 62.74 97.81 62.36
  A 0.47 0.46 27.3 0 0 97.57 61.63
  Q 96.72 61.37 96.06 62.00
  C 95.07 62.95 95.92 64.11 94.84 65.04
  Q 94.32 65.49 94.85 65.94
  L 95.10 66.15
  Q 95.33 66.35 95.33 66.65
  L 95.44 72.21
  Q 95.44 72.44 95.67 72.43
  L 96.01 72.42
  Q 96.48 72.42 96.48 71.95
  L 96.42 66.99
  Q 96.42 66.25 97.12 66.03
  Z
  M 109.71 62.52
  A 0.27 0.27 0.0 0 0 109.44 62.25
  L 108.90 62.25
  A 0.27 0.27 0.0 0 0 108.63 62.52
  L 108.63 71.96
  A 0.27 0.27 0.0 0 0 108.90 72.23
  L 109.44 72.23
  A 0.27 0.27 0.0 0 0 109.71 71.96
  L 109.71 62.52
  Z
  M 83.48 68.82
  L 87.47 68.89
  Q 90.44 68.94 88.74 66.50
  C 86.87 63.83 83.58 63.90 82.14 66.86
  C 80.00 71.24 85.15 75.09 88.45 71.40
  Q 90.04 69.63 87.80 70.41
  Q 87.39 70.55 87.14 70.90
  C 86.02 72.46 83.74 71.21 82.87 69.95
  Q 82.07 68.79 83.48 68.82
  Z
  M 106.05 72.06
  Q 106.12 72.09 106.17 72.14
  Q 106.79 72.70 106.79 71.86
  Q 106.77 69.01 106.87 66.00
  Q 106.89 65.34 106.23 65.42
  L 105.78 65.48
  Q 105.05 65.57 104.41 65.22
  Q 101.62 63.67 99.46 66.73
  C 97.63 69.34 100.07 72.67 102.85 72.78
  A 1.43 1.40 30.8 0 0 103.63 72.59
  Q 104.47 72.12 105.41 71.98
  Q 105.74 71.93 106.05 72.06
  Z
  M 113.50 68.86
  L 118.17 68.82
  A 0.93 0.93 0.0 0 0 118.98 67.43
  Q 116.65 63.29 113.37 65.19
  C 107.37 68.68 115.22 76.77 118.63 70.70
  A 0.43 0.43 0.0 0 0 118.30 70.06
  Q 117.89 70.03 117.60 70.32
  Q 115.02 72.90 112.89 70.09
  Q 111.96 68.87 113.50 68.86
  Z
  M 129.82 66.07
  L 130.93 66.89
  A 0.42 0.41 -44.2 0 0 131.42 66.89
  Q 131.63 66.74 131.65 66.52
  Q 131.67 66.19 131.45 65.98
  C 127.31 62.05 121.40 68.17 125.67 71.69
  Q 128.47 73.99 131.65 71.46
  A 0.48 0.48 0.0 0 0 131.72 70.78
  L 131.49 70.50
  A 0.35 0.34 -38.4 0 0 131.01 70.45
  C 126.76 73.75 123.03 68.22 127.47 65.89
  A 2.21 2.21 0.0 0 1 129.82 66.07
  Z
  M 141.36 68.74
  A 3.98 3.98 0.0 0 0 137.38 64.76
  A 3.98 3.98 0.0 0 0 133.40 68.74
  A 3.98 3.98 0.0 0 0 137.38 72.72
  A 3.98 3.98 0.0 0 0 141.36 68.74
  Z
  M 158.77 68.72
  A 3.98 3.98 0.0 0 0 154.79 64.74
  A 3.98 3.98 0.0 0 0 150.81 68.72
  A 3.98 3.98 0.0 0 0 154.79 72.70
  A 3.98 3.98 0.0 0 0 158.77 68.72
  Z
  M 167.97 71.03
  A 2.67 2.66 -59.9 0 1 167.03 67.48
  Q 168.05 65.61 170.38 65.69
  A 1.35 1.34 72.8 0 1 171.43 66.25
  Q 171.91 66.94 172.61 66.74
  Q 173.32 66.53 172.79 66.01
  C 170.02 63.31 166.86 64.95 165.46 67.93
  Q 165.19 68.50 165.37 69.10
  C 166.36 72.39 170.41 74.34 172.82 71.28
  Q 173.20 70.80 172.66 70.51
  C 172.25 70.29 170.20 72.39 167.97 71.03
  Z
  M 182.66 68.72
  A 3.98 3.98 0.0 0 0 178.68 64.74
  A 3.98 3.98 0.0 0 0 174.70 68.72
  A 3.98 3.98 0.0 0 0 178.68 72.70
  A 3.98 3.98 0.0 0 0 182.66 68.72
  Z
  M 143.10 65.94
  L 142.88 72.11
  Q 142.87 72.43 143.19 72.41
  L 143.69 72.40
  Q 144.06 72.38 144.02 72.01
  C 143.78 69.95 143.32 67.67 145.18 66.16
  C 146.58 65.03 148.26 66.14 148.39 67.76
  Q 148.51 69.42 148.21 71.83
  Q 148.13 72.49 148.79 72.46
  L 149.25 72.45
  Q 149.81 72.42 149.75 71.86
  C 149.52 69.61 150.39 64.60 146.51 64.65
  A 2.06 2.06 0.0 0 0 145.41 64.99
  Q 144.54 65.58 143.58 65.51
  Q 143.11 65.48 143.10 65.94
  Z
  M 161.60 66.33
  Q 162.17 65.49 163.10 66.08
  Q 163.63 66.42 163.95 65.88
  L 164.10 65.63
  Q 164.14 65.56 164.08 65.50
  Q 162.15 63.66 160.48 65.95
  Q 159.59 67.16 160.81 68.03
  L 163.12 69.68
  A 0.95 0.95 0.0 0 1 162.92 71.33
  Q 161.96 71.73 160.91 71.10
  A 0.40 0.40 0.0 0 0 160.31 71.39
  L 160.25 71.75
  Q 160.22 72.00 160.42 72.14
  C 163.92 74.61 166.52 69.41 161.93 67.46
  A 0.76 0.76 0.0 0 1 161.60 66.33
  Z"
/>
<path fill="#040304" d="
  M 83.97 53.23
  Q 86.51 55.56 90.03 54.43
  C 90.93 54.14 91.70 53.42 92.51 52.95
  Q 93.45 52.40 93.29 53.47
  Q 93.19 54.15 92.62 54.52
  Q 86.79 58.26 82.65 53.76
  C 79.88 50.74 80.46 45.56 84.09 43.64
  Q 88.55 41.27 93.02 44.32
  A 0.88 0.87 -67.2 0 1 93.39 45.24
  L 93.33 45.52
  A 0.41 0.41 0.0 0 1 92.65 45.73
  Q 88.61 42.02 84.33 45.10
  C 81.92 46.83 81.72 51.15 83.97 53.23
  Z"
/>
<path fill="#040304" d="
  M 99.98 42.54
  Q 101.81 43.15 100.82 44.11
  A 0.83 0.82 -56.4 0 1 99.95 44.29
  Q 98.85 43.88 99.10 43.00
  A 0.69 0.68 16.9 0 1 99.98 42.54
  Z"
/>
<ellipse fill="#040304" cx="0.00" cy="0.00" transform="translate(178.98,43.35) rotate(18.9)" rx="1.04" ry="0.88"/>
<rect fill="#040304" x="-0.73" y="-6.56" transform="translate(96.42,49.22) rotate(-0.3)" width="1.46" height="13.12" rx="0.58"/>
<path fill="#040304" d="
  M 111.45 46.79
  Q 111.60 46.51 111.85 46.35
  A 0.67 0.66 74.1 0 1 112.87 46.92
  L 112.79 58.85
  A 0.66 0.66 0.0 0 1 112.13 59.50
  L 111.77 59.50
  Q 111.28 59.51 111.28 59.02
  L 111.33 55.37
  Q 111.35 54.32 110.60 55.07
  C 108.28 57.42 104.93 55.92 103.30 53.55
  C 100.88 50.01 104.75 44.90 108.76 45.94
  C 109.56 46.15 109.91 46.78 110.64 47.08
  Q 111.17 47.30 111.45 46.79
  Z
  M 111.49 51.00
  A 3.75 3.75 0.0 0 0 107.74 47.25
  A 3.75 3.75 0.0 0 0 103.99 51.00
  A 3.75 3.75 0.0 0 0 107.74 54.75
  A 3.75 3.75 0.0 0 0 111.49 51.00
  Z"
/>
<path fill="#040304" d="
  M 128.32 51.51
  Q 126.73 51.53 127.69 52.79
  Q 130.77 56.88 134.61 52.81
  A 0.29 0.29 0.0 0 1 134.91 52.74
  L 135.29 52.89
  Q 135.85 53.11 135.47 53.58
  Q 131.70 58.23 127.73 54.72
  Q 124.25 51.65 127.14 47.96
  Q 130.29 43.94 134.26 47.21
  Q 136.08 48.70 135.99 50.78
  A 0.66 0.66 0.0 0 1 135.34 51.41
  L 128.32 51.51
  Z
  M 127.84 50.02
  L 134.12 49.94
  A 0.14 0.14 0.0 0 0 134.26 49.79
  L 134.26 49.73
  A 3.13 2.46 -0.8 0 0 131.09 47.32
  L 130.79 47.32
  A 3.13 2.46 -0.8 0 0 127.70 49.83
  L 127.70 49.89
  A 0.14 0.14 0.0 0 0 127.84 50.02
  Z"
/>
<path fill="#040304" d="
  M 150.45 55.06
  C 149.70 55.46 149.17 55.98 148.27 56.08
  C 143.25 56.65 140.69 50.74 144.27 47.29
  Q 147.09 44.58 150.26 46.89
  A 0.65 0.65 0.0 0 0 151.01 46.90
  L 151.77 46.39
  A 0.50 0.49 -16.8 0 1 152.54 46.80
  L 152.57 55.16
  A 0.47 0.47 0.0 0 1 152.11 55.63
  Q 151.66 55.63 151.38 55.26
  Q 151.00 54.76 150.45 55.06
  Z
  M 151.35 50.99
  A 3.78 3.78 0.0 0 0 147.57 47.21
  A 3.78 3.78 0.0 0 0 143.79 50.99
  A 3.78 3.78 0.0 0 0 147.57 54.77
  A 3.78 3.78 0.0 0 0 151.35 50.99
  Z"
/>
<path fill="#040304" d="
  M 163.53 55.04
  Q 163.54 54.32 163.02 54.82
  C 158.48 59.19 151.80 52.46 156.32 47.43
  C 157.86 45.73 160.10 45.32 162.07 46.64
  Q 163.04 47.29 163.94 46.60
  Q 164.73 45.99 164.73 46.98
  L 164.78 58.86
  A 0.61 0.61 0.0 0 1 164.13 59.47
  L 163.82 59.45
  Q 163.46 59.43 163.47 59.07
  L 163.53 55.04
  Z
  M 163.71 50.96
  A 3.77 3.77 0.0 0 0 159.94 47.19
  A 3.77 3.77 0.0 0 0 156.17 50.96
  A 3.77 3.77 0.0 0 0 159.94 54.73
  A 3.77 3.77 0.0 0 0 163.71 50.96
  Z"
/>
<path fill="#040304" d="
  M 116.48 52.09
  A 2.58 2.57 -79.8 0 0 118.18 54.54
  C 123.62 56.54 122.27 48.74 122.49 46.29
  A 0.28 0.28 0.0 0 1 122.77 46.03
  L 123.14 46.04
  A 0.51 0.51 0.0 0 1 123.63 46.52
  C 123.86 49.78 124.56 56.31 119.29 56.17
  C 114.33 56.04 115.38 50.09 115.06 47.04
  A 0.74 0.73 86.8 0 1 115.78 46.23
  L 116.13 46.22
  Q 116.55 46.22 116.54 46.63
  L 116.48 52.09
  Z"
/>
<path fill="#040304" d="
  M 169.03 52.04
  C 169.14 55.53 174.03 55.73 174.51 52.41
  Q 174.88 49.84 174.67 46.69
  Q 174.64 46.09 175.23 46.04
  L 175.52 46.02
  Q 175.90 45.99 175.94 46.36
  Q 176.27 49.82 175.91 52.63
  C 175.26 57.74 167.58 57.30 167.50 51.46
  Q 167.47 48.73 167.60 46.45
  A 0.40 0.39 2.9 0 1 168.02 46.08
  L 168.27 46.10
  A 0.75 0.75 0.0 0 1 168.98 46.86
  Q 168.95 49.52 169.03 52.04
  Z"
/>
<rect fill="#040304" x="-0.71" y="-4.89" transform="translate(178.89,50.93) rotate(0.9)" width="1.42" height="9.78" rx="0.66"/>
<path fill="#403d3d" fill-opacity="0.988" d="
  M 78.40 46.16
  Q 78.54 48.21 77.72 49.80
  Q 77.49 47.74 78.40 46.16
  Z"
/>
<rect fill="#040304" x="-0.84" y="-4.81" transform="translate(100.09,51.06) rotate(-0.4)" width="1.68" height="9.62" rx="0.67"/>
<circle fill="#76b566" cx="147.57" cy="50.99" r="3.78"/>
<circle fill="#76b566" cx="159.94" cy="50.96" r="3.77"/>
<circle fill="#76b566" cx="107.74" cy="51.00" r="3.75"/>
<path fill="#76b566" d="
  M 127.84 50.02
  A 0.14 0.14 0.0 0 1 127.70 49.89
  L 127.70 49.83
  A 3.13 2.46 -0.8 0 1 130.79 47.32
  L 131.09 47.32
  A 3.13 2.46 -0.8 0 1 134.26 49.73
  L 134.26 49.79
  A 0.14 0.14 0.0 0 1 134.12 49.94
  L 127.84 50.02
  Z"
/>
<path fill="#72b53c" d="
  M 65.87 60.03
  Q 61.62 60.74 59.02 59.78
  Q 58.46 59.57 57.98 59.93
  Q 57.56 60.25 57.00 60.21
  Q 56.45 60.17 56.08 60.58
  Q 55.37 61.38 53.88 60.89
  Q 57.30 59.96 59.52 57.57
  C 60.87 56.10 61.48 53.89 62.28 52.03
  Q 62.52 51.49 63.11 51.44
  L 68.86 50.99
  Q 69.42 50.95 69.35 51.50
  Q 68.76 56.72 65.87 60.03
  Z"
/>
<path fill="#72b53c" d="
  M 42.55 59.04
  Q 38.71 60.40 34.50 59.89
  Q 29.89 59.34 24.62 59.78
  Q 21.77 60.02 18.87 59.80
  Q 18.23 59.75 18.32 60.38
  Q 18.45 61.39 17.67 62.08
  A 1.90 1.86 -14.4 0 0 17.13 62.97
  Q 16.38 65.80 14.59 68.03
  Q 14.82 64.33 16.41 61.42
  Q 16.60 61.06 16.22 60.22
  Q 16.85 60.26 16.47 59.31
  Q 15.36 56.57 13.95 53.30
  A 1.21 1.21 0.0 0 1 15.09 51.61
  L 29.35 51.87
  Q 29.81 51.88 30.23 51.71
  Q 31.43 51.21 32.53 52.21
  Q 36.84 56.11 42.55 59.04
  Z"
/>
<path fill="#87cc4f" d="
  M 42.55 59.04
  L 51.41 61.47
  A 1.11 1.07 43.0 0 0 52.04 61.46
  L 53.88 60.89
  Q 55.37 61.38 56.08 60.58
  Q 56.45 60.17 57.00 60.21
  Q 57.56 60.25 57.98 59.93
  Q 58.46 59.57 59.02 59.78
  Q 61.62 60.74 65.87 60.03
  Q 62.69 63.32 62.22 65.81
  Q 44.59 80.17 24.69 68.83
  Q 24.26 68.59 23.79 68.75
  L 13.21 72.32
  Q 12.76 72.47 12.85 72.00
  Q 13.36 69.44 14.59 68.03
  Q 16.38 65.80 17.13 62.97
  A 1.90 1.86 -14.4 0 1 17.67 62.08
  Q 18.45 61.39 18.32 60.38
  Q 18.23 59.75 18.87 59.80
  Q 21.77 60.02 24.62 59.78
  Q 29.89 59.34 34.50 59.89
  Q 38.71 60.40 42.55 59.04
  Z"
/>
<path fill="#040304" d="
  M 96.42 66.99
  L 96.48 71.95
  Q 96.48 72.42 96.01 72.42
  L 95.67 72.43
  Q 95.44 72.44 95.44 72.21
  L 95.33 66.65
  Q 95.33 66.35 95.10 66.15
  L 94.85 65.94
  Q 94.32 65.49 94.84 65.04
  C 95.92 64.11 95.07 62.95 96.06 62.00
  Q 96.72 61.37 97.57 61.63
  A 0.47 0.46 27.3 0 1 97.81 62.36
  Q 97.52 62.74 97.05 62.89
  Q 96.37 63.12 96.29 63.84
  Q 96.19 64.72 97.09 64.95
  Q 97.82 65.14 97.43 65.78
  Q 97.32 65.96 97.12 66.03
  Q 96.42 66.25 96.42 66.99
  Z"
/>
<rect fill="#040304" x="108.63" y="62.25" width="1.08" height="9.98" rx="0.27"/>
<path fill="#040304" d="
  M 83.48 68.82
  Q 82.07 68.79 82.87 69.95
  C 83.74 71.21 86.02 72.46 87.14 70.90
  Q 87.39 70.55 87.80 70.41
  Q 90.04 69.63 88.45 71.40
  C 85.15 75.09 80.00 71.24 82.14 66.86
  C 83.58 63.90 86.87 63.83 88.74 66.50
  Q 90.44 68.94 87.47 68.89
  L 83.48 68.82
  Z
  M 83.20 67.54
  L 87.76 67.60
  A 0.04 0.04 0.0 0 0 87.80 67.56
  L 87.80 67.51
  A 2.20 1.73 0.7 0 0 85.62 65.75
  L 85.38 65.75
  A 2.20 1.73 0.7 0 0 83.16 67.45
  L 83.16 67.50
  A 0.04 0.04 0.0 0 0 83.20 67.54
  Z"
/>
<path fill="#040304" d="
  M 105.41 71.98
  Q 104.47 72.12 103.63 72.59
  A 1.43 1.40 30.8 0 1 102.85 72.78
  C 100.07 72.67 97.63 69.34 99.46 66.73
  Q 101.62 63.67 104.41 65.22
  Q 105.05 65.57 105.78 65.48
  L 106.23 65.42
  Q 106.89 65.34 106.87 66.00
  Q 106.77 69.01 106.79 71.86
  Q 106.79 72.70 106.17 72.14
  Q 106.12 72.09 106.05 72.06
  Q 105.74 71.93 105.41 71.98
  Z
  M 105.70 68.69
  A 2.84 2.84 0.0 0 0 102.86 65.85
  A 2.84 2.84 0.0 0 0 100.02 68.69
  A 2.84 2.84 0.0 0 0 102.86 71.53
  A 2.84 2.84 0.0 0 0 105.70 68.69
  Z"
/>
<path fill="#040304" d="
  M 113.50 68.86
  Q 111.96 68.87 112.89 70.09
  Q 115.02 72.90 117.60 70.32
  Q 117.89 70.03 118.30 70.06
  A 0.43 0.43 0.0 0 1 118.63 70.70
  C 115.22 76.77 107.37 68.68 113.37 65.19
  Q 116.65 63.29 118.98 67.43
  A 0.93 0.93 0.0 0 1 118.17 68.82
  L 113.50 68.86
  Z
  M 113.10 67.57
  L 117.30 67.61
  A 0.04 0.04 0.0 0 0 117.34 67.57
  L 117.34 67.53
  A 2.00 1.72 0.5 0 0 115.36 65.79
  L 115.08 65.79
  A 2.00 1.72 0.5 0 0 113.06 67.49
  L 113.06 67.53
  A 0.04 0.04 0.0 0 0 113.10 67.57
  Z"
/>
<path fill="#040304" d="
  M 129.82 66.07
  A 2.21 2.21 0.0 0 0 127.47 65.89
  C 123.03 68.22 126.76 73.75 131.01 70.45
  A 0.35 0.34 -38.4 0 1 131.49 70.50
  L 131.72 70.78
  A 0.48 0.48 0.0 0 1 131.65 71.46
  Q 128.47 73.99 125.67 71.69
  C 121.40 68.17 127.31 62.05 131.45 65.98
  Q 131.67 66.19 131.65 66.52
  Q 131.63 66.74 131.42 66.89
  A 0.42 0.41 -44.2 0 1 130.93 66.89
  L 129.82 66.07
  Z"
/>
<path fill="#040304" d="
  M 141.36 68.74
  A 3.98 3.98 0.0 0 1 137.38 72.72
  A 3.98 3.98 0.0 0 1 133.40 68.74
  A 3.98 3.98 0.0 0 1 137.38 64.76
  A 3.98 3.98 0.0 0 1 141.36 68.74
  Z
  M 140.21 68.69
  A 2.83 2.83 0.0 0 0 137.38 65.86
  A 2.83 2.83 0.0 0 0 134.55 68.69
  A 2.83 2.83 0.0 0 0 137.38 71.52
  A 2.83 2.83 0.0 0 0 140.21 68.69
  Z"
/>
<path fill="#040304" d="
  M 158.77 68.72
  A 3.98 3.98 0.0 0 1 154.79 72.70
  A 3.98 3.98 0.0 0 1 150.81 68.72
  A 3.98 3.98 0.0 0 1 154.79 64.74
  A 3.98 3.98 0.0 0 1 158.77 68.72
  Z
  M 157.59 68.70
  A 2.81 2.81 0.0 0 0 154.78 65.89
  A 2.81 2.81 0.0 0 0 151.97 68.70
  A 2.81 2.81 0.0 0 0 154.78 71.51
  A 2.81 2.81 0.0 0 0 157.59 68.70
  Z"
/>
<path fill="#040304" d="
  M 167.97 71.03
  C 170.20 72.39 172.25 70.29 172.66 70.51
  Q 173.20 70.80 172.82 71.28
  C 170.41 74.34 166.36 72.39 165.37 69.10
  Q 165.19 68.50 165.46 67.93
  C 166.86 64.95 170.02 63.31 172.79 66.01
  Q 173.32 66.53 172.61 66.74
  Q 171.91 66.94 171.43 66.25
  A 1.35 1.34 72.8 0 0 170.38 65.69
  Q 168.05 65.61 167.03 67.48
  A 2.67 2.66 -59.9 0 0 167.97 71.03
  Z"
/>
<path fill="#040304" d="
  M 182.66 68.72
  A 3.98 3.98 0.0 0 1 178.68 72.70
  A 3.98 3.98 0.0 0 1 174.70 68.72
  A 3.98 3.98 0.0 0 1 178.68 64.74
  A 3.98 3.98 0.0 0 1 182.66 68.72
  Z
  M 179.2478 71.5234
  A 2.90 2.76 77.7 0 0 181.3266 68.1020
  A 2.90 2.76 77.7 0 0 178.0122 65.8566
  A 2.90 2.76 77.7 0 0 175.9334 69.2780
  A 2.90 2.76 77.7 0 0 179.2478 71.5234
  Z"
/>
<path fill="#040304" d="
  M 142.88 72.11
  L 143.10 65.94
  Q 143.11 65.48 143.58 65.51
  Q 144.54 65.58 145.41 64.99
  A 2.06 2.06 0.0 0 1 146.51 64.65
  C 150.39 64.60 149.52 69.61 149.75 71.86
  Q 149.81 72.42 149.25 72.45
  L 148.79 72.46
  Q 148.13 72.49 148.21 71.83
  Q 148.51 69.42 148.39 67.76
  C 148.26 66.14 146.58 65.03 145.18 66.16
  C 143.32 67.67 143.78 69.95 144.02 72.01
  Q 144.06 72.38 143.69 72.40
  L 143.19 72.41
  Q 142.87 72.43 142.88 72.11
  Z"
/>
<path fill="#040304" d="
  M 161.60 66.33
  A 0.76 0.76 0.0 0 0 161.93 67.46
  C 166.52 69.41 163.92 74.61 160.42 72.14
  Q 160.22 72.00 160.25 71.75
  L 160.31 71.39
  A 0.40 0.40 0.0 0 1 160.91 71.10
  Q 161.96 71.73 162.92 71.33
  A 0.95 0.95 0.0 0 0 163.12 69.68
  L 160.81 68.03
  Q 159.59 67.16 160.48 65.95
  Q 162.15 63.66 164.08 65.50
  Q 164.14 65.56 164.10 65.63
  L 163.95 65.88
  Q 163.63 66.42 163.10 66.08
  Q 162.17 65.49 161.60 66.33
  Z"
/>
<path fill="#76b566" d="
  M 83.20 67.54
  A 0.04 0.04 0.0 0 1 83.16 67.50
  L 83.16 67.45
  A 2.20 1.73 0.7 0 1 85.38 65.75
  L 85.62 65.75
  A 2.20 1.73 0.7 0 1 87.80 67.51
  L 87.80 67.56
  A 0.04 0.04 0.0 0 1 87.76 67.60
  L 83.20 67.54
  Z"
/>
<circle fill="#76b566" cx="102.86" cy="68.69" r="2.84"/>
<path fill="#76b566" d="
  M 113.10 67.57
  A 0.04 0.04 0.0 0 1 113.06 67.53
  L 113.06 67.49
  A 2.00 1.72 0.5 0 1 115.08 65.79
  L 115.36 65.79
  A 2.00 1.72 0.5 0 1 117.34 67.53
  L 117.34 67.57
  A 0.04 0.04 0.0 0 1 117.30 67.61
  L 113.10 67.57
  Z"
/>
<circle fill="#76b566" cx="137.38" cy="68.69" r="2.83"/>
<circle fill="#76b566" cx="154.78" cy="68.70" r="2.81"/>
<ellipse fill="#76b566" cx="0.00" cy="0.00" transform="translate(178.63,68.69) rotate(77.7)" rx="2.90" ry="2.76"/>
</svg>
